<svg width="726" height="204" viewBox="0 0 726 204" fill="none" xmlns="http://www.w3.org/2000/svg">
<rect width="726" height="204" rx="21" fill="black" fill-opacity="0.42"/>
<path d="M86.936 67.976C83.8 66.6533 80.4293 65.384 76.824 64.168L77.848 61.448C81.7307 62.7493 85.1333 63.9867 88.056 65.16L86.936 67.976ZM87.608 77.768C89.9547 81.096 93.1333 84.0187 97.144 86.536L95.16 89.384C92.92 87.912 90.872 86.152 89.016 84.104C87.16 82.056 85.5493 79.816 84.184 77.384V87.24C84.184 88.7973 83.8853 89.8747 83.288 90.472C82.712 91.0693 81.7733 91.3893 80.472 91.432C79.064 91.4533 77.6453 91.3893 76.216 91.24L75.576 88.264C76.7067 88.4347 77.9653 88.52 79.352 88.52C80.056 88.52 80.5147 88.36 80.728 88.04C80.9627 87.6987 81.08 87.0907 81.08 86.216V71.112H70.84V68.168H84.184V71.4C84.6107 72.488 85.1973 73.7253 85.944 75.112C88.8027 72.8507 91.1173 70.7387 92.888 68.776L95.256 71.24C92.5467 73.864 89.9973 76.04 87.608 77.768ZM78.808 74.632V77.48C78.04 79.7413 76.8987 81.8747 75.384 83.88C73.8693 85.8853 71.8427 87.848 69.304 89.768L67.128 87.176C71.416 84.232 74.264 81.032 75.672 77.576H68.216V74.632H78.808ZM139.544 73.864C138.989 73.16 138.136 72.1467 136.984 70.824V91.336H134.136V62.056H136.984V67.592C138.605 69.1067 139.992 70.4933 141.144 71.752L139.544 73.864ZM140.664 63.816H158.488V66.664H140.664V63.816ZM129.144 78.792C129.443 77.4693 129.741 75.656 130.04 73.352C130.36 71.048 130.605 69 130.776 67.208L133.208 67.432C133.016 69.3307 132.771 71.4533 132.472 73.8C132.195 76.1253 131.928 77.9387 131.672 79.24L129.144 78.792ZM156.888 69.576V84.328H141.56V69.576H156.888ZM154.072 75.624V72.424H144.376V75.624H154.072ZM144.376 78.312V81.544H154.072V78.312H144.376ZM139.256 90.28V87.464H159.224V90.28H139.256ZM208.408 62.184V67.144H219.256V91.496H216.408V89.384H197.56V91.496H194.68V67.144H205.56V62.184H208.408ZM205.56 76.808V70.024H197.56V76.808H205.56ZM216.408 76.808V70.024H208.408V76.808H216.408ZM205.56 79.752H197.56V86.504H205.56V79.752ZM208.408 79.752V86.504H216.408V79.752H208.408ZM283.288 75.784H269.144C268.483 79.176 267.245 82.1093 265.432 84.584C263.619 87.0373 260.909 89.3627 257.304 91.56L255.448 88.808C258.627 86.9733 261.027 85.032 262.648 82.984C264.291 80.936 265.411 78.536 266.008 75.784H255.512V72.936H266.488C266.552 72.296 266.627 71.3467 266.712 70.088C266.755 69.6187 266.776 68.808 266.776 67.656C266.797 67.4427 266.808 67.1333 266.808 66.728H257.336V63.88H281.432V66.728H269.88C269.837 68.4133 269.795 69.5973 269.752 70.28L269.56 72.936H283.288V75.784ZM283.448 82.312L283.256 86.76C283.213 87.72 283.053 88.456 282.776 88.968C282.52 89.48 282.104 89.8427 281.528 90.056C280.952 90.2907 280.141 90.44 279.096 90.504C278.179 90.568 277.304 90.6 276.472 90.6C275.683 90.6 274.819 90.568 273.88 90.504C272.515 90.4187 271.533 90.0773 270.936 89.48C270.339 88.8827 270.04 87.8267 270.04 86.312V77.512H273.08V85.512C273.08 86.28 273.219 86.824 273.496 87.144C273.773 87.4427 274.243 87.6133 274.904 87.656C275.757 87.6987 276.333 87.72 276.632 87.72C276.973 87.72 277.549 87.6987 278.36 87.656C279.149 87.592 279.683 87.4213 279.96 87.144C280.237 86.8667 280.387 86.3227 280.408 85.512C280.472 84.04 280.504 82.792 280.504 81.768L283.448 82.312ZM340.536 83.112C341.944 85.1387 343.949 87.144 346.552 89.128L344.696 91.656C342.285 89.6933 340.355 87.6987 338.904 85.672C337.539 87.528 335.64 89.5013 333.208 91.592L331.32 89.128C333.923 87.0587 335.896 85 337.24 82.952C335.939 80.5413 334.979 77.768 334.36 74.632C333.912 75.4213 333.645 75.88 333.56 76.008L331.64 73.608C332.707 71.944 333.624 70.12 334.392 68.136C335.181 66.1307 335.789 64.1467 336.216 62.184L339 62.696C338.595 64.424 338.157 65.9387 337.688 67.24H346.04V70.216H343.896C343.619 73.0533 343.213 75.496 342.68 77.544C342.168 79.592 341.453 81.448 340.536 83.112ZM316.952 76.072C319.277 74.7493 321.197 73.16 322.712 71.304H317.752V68.84H324.056V62.376H326.68V68.84H332.28V71.304H326.68V71.496L328.216 72.52C330.371 73.9493 331.661 74.824 332.088 75.144L330.744 77.16C329.869 76.4347 328.515 75.4213 326.68 74.12V77.096H324.056V73.032C322.499 75.1013 320.589 76.8613 318.328 78.312L316.952 76.072ZM320.984 68.456C320.131 67.1333 319.16 65.7573 318.072 64.328L319.864 62.984C320.611 63.944 321.197 64.7227 321.624 65.32C321.709 65.4267 322.147 66.0133 322.936 67.08L320.984 68.456ZM332.76 64.328C331.651 65.9707 330.605 67.4 329.624 68.616L327.704 67.208C328.813 65.8213 329.848 64.4133 330.808 62.984L332.76 64.328ZM336.216 70.952C336.515 72.8507 336.867 74.5467 337.272 76.04C337.677 77.512 338.179 78.8773 338.776 80.136C339.949 77.5547 340.749 74.248 341.176 70.216H336.536L336.216 70.952ZM330.424 90.184C329.229 89.4373 327.896 88.7013 326.424 87.976C324.461 89.2987 321.677 90.5253 318.072 91.656L316.856 89.128C319.8 88.2533 322.072 87.4213 323.672 86.632C322.541 86.0773 320.984 85.3627 319 84.488C319.384 83.8907 319.917 82.9947 320.6 81.8H317.24V79.4H321.816C322.157 78.696 322.445 78.0027 322.68 77.32L325.432 77.896L324.856 79.4H331.608V81.672C330.797 83.5067 329.827 85 328.696 86.152C329.891 86.7493 330.936 87.304 331.832 87.816L330.424 90.184ZM326.2 85C327.224 84.1253 328.024 83.0587 328.6 81.8H323.736L322.776 83.56L326.2 85ZM379.064 74.568C382.051 72.7973 384.728 70.824 387.096 68.648C389.464 66.472 391.395 64.2213 392.888 61.896H395.48C397.165 64.3707 399.139 66.6533 401.4 68.744C403.683 70.8133 406.339 72.776 409.368 74.632L407.416 77.512C404.6 75.6773 402.051 73.7467 399.768 71.72C397.507 69.6933 395.651 67.656 394.2 65.608C391.149 69.7467 386.712 73.7147 380.888 77.512L379.064 74.568ZM392.568 72.488H395.768V91.368H392.568V72.488ZM471.032 81.896C470.989 82.7493 470.893 84.2213 470.744 86.312C470.68 87.3787 470.499 88.2 470.2 88.776C469.923 89.352 469.517 89.7573 468.984 89.992C468.451 90.248 467.715 90.4187 466.776 90.504C466.136 90.568 465.485 90.6 464.824 90.6C464.184 90.6 463.523 90.568 462.84 90.504C461.944 90.4187 461.24 90.2373 460.728 89.96C460.216 89.6827 459.843 89.2347 459.608 88.616C459.373 87.976 459.256 87.08 459.256 85.928V62.152H462.232V73.064C463.341 72.2533 464.493 71.336 465.688 70.312C466.883 69.2667 467.885 68.328 468.696 67.496L470.744 69.992C469.72 71.016 468.419 72.1467 466.84 73.384C465.283 74.6213 463.747 75.7627 462.232 76.808V85.384C462.232 86.152 462.339 86.6853 462.552 86.984C462.787 87.2827 463.149 87.464 463.64 87.528C464.131 87.592 464.6 87.624 465.048 87.624C465.539 87.624 466.008 87.592 466.456 87.528C466.84 87.4853 467.128 87.4 467.32 87.272C467.512 87.144 467.651 86.9307 467.736 86.632C467.821 86.312 467.896 85.8427 467.96 85.224C468.003 84.712 468.077 83.4107 468.184 81.32L471.032 81.896ZM453.688 84.552L457.624 83.528L457.976 86.664C456.013 87.0693 450.84 88.3387 442.456 90.472L441.944 87.368C442.371 87.2827 443.235 87.08 444.536 86.76V67.656H447.448V86.056C449.155 85.6507 450.264 85.384 450.776 85.256V62.696H453.688V71.144H457.752V74.152H453.688V84.552ZM504.504 82.536C506.36 81.576 507.96 80.6053 509.304 79.624C510.669 78.6213 511.875 77.5333 512.92 76.36C510.189 76.68 508.483 76.872 507.8 76.936C507.309 76.9787 506.851 77.0427 506.424 77.128L505.688 74.344C506.307 74.1733 506.797 73.8853 507.16 73.48C507.608 73.0107 508.141 72.3173 508.76 71.4C509.379 70.4613 509.944 69.512 510.456 68.552H504.92V65.832H512.408L511.384 62.632L514.2 62.024C514.605 63.0693 515.021 64.3387 515.448 65.832H522.008V68.552H513.56C513.069 69.512 512.493 70.504 511.832 71.528C511.171 72.552 510.552 73.4267 509.976 74.152L512.152 73.896L515.096 73.544C515.757 72.5627 516.472 71.3573 517.24 69.928L519.576 71.144C517.891 74.2587 515.981 76.9253 513.848 79.144C511.736 81.3413 509.144 83.2613 506.072 84.904L504.504 82.536ZM529.4 62.888H532.28V87.464C532.28 88.8933 532.003 89.9067 531.448 90.504C530.893 91.1227 529.891 91.4427 528.44 91.464C527.416 91.4853 526.179 91.4427 524.728 91.336L524.12 88.392C525.336 88.52 526.563 88.584 527.8 88.584C528.44 88.584 528.867 88.424 529.08 88.104C529.293 87.7627 529.4 87.176 529.4 86.344V62.888ZM523.512 65.704H526.296V84.68H523.512V65.704ZM521.624 77.832C520.045 80.3707 518.467 82.4507 516.888 84.072C518.765 85.6293 520.643 87.2613 522.52 88.968L520.536 91.4C519.896 90.7173 519.021 89.8427 517.912 88.776C516.803 87.688 515.811 86.7493 514.936 85.96C512.589 88.0293 509.581 89.9813 505.912 91.816L504.184 89.384C507.768 87.6773 510.712 85.8427 513.016 83.88C515.32 81.896 517.4 79.432 519.256 76.488L521.624 77.832ZM569.08 74.376C568.525 74.44 567.928 74.5467 567.288 74.696L566.648 71.784C566.968 71.6773 567.213 71.56 567.384 71.432C567.576 71.304 567.747 71.144 567.896 70.952C568.429 70.1627 569.187 68.8613 570.168 67.048C571.149 65.2347 571.981 63.5707 572.664 62.056L575.416 63.272C574.691 64.7653 573.901 66.2907 573.048 67.848C572.216 69.4053 571.501 70.6533 570.904 71.592C571.693 71.4853 572.877 71.304 574.456 71.048C575.352 69.5973 576.077 68.328 576.632 67.24L579.16 68.488C578.371 69.9813 577.283 71.816 575.896 73.992C574.509 76.168 573.293 77.96 572.248 79.368L577.56 78.152L577.592 81.16C574.605 81.6293 572.152 82.0773 570.232 82.504C569.656 82.6107 568.952 82.7813 568.12 83.016L567.48 80.008C567.885 79.88 568.195 79.7413 568.408 79.592C568.643 79.4213 568.877 79.1973 569.112 78.92C569.816 78.088 571 76.4133 572.664 73.896C571.747 73.9813 570.552 74.1413 569.08 74.376ZM593.688 63.528V87.528H596.12V90.344H577.304V87.528H579.864V63.528H593.688ZM590.776 71.56V66.408H582.744V71.56H590.776ZM582.744 79.4H590.776V74.376H582.744V79.4ZM590.776 82.216H582.744V87.528H590.776V82.216ZM577.88 87.272C577.048 87.4 575.331 87.752 572.728 88.328C570.125 88.8827 568.237 89.3093 567.064 89.608L566.552 86.728C568.088 86.3653 570.093 85.9067 572.568 85.352C575.064 84.7973 576.739 84.4347 577.592 84.264L577.88 87.272ZM658.744 82.856C658.424 84.5627 658.125 85.96 657.848 87.048C657.507 88.6053 657.016 89.6827 656.376 90.28C655.736 90.8773 654.947 91.176 654.008 91.176C653.176 91.176 652.429 90.888 651.768 90.312C651.128 89.7573 650.349 88.776 649.432 87.368C649.133 86.8987 648.835 86.344 648.536 85.704C646.68 87.688 644.557 89.544 642.168 91.272L640.184 89C643.085 86.9733 645.485 84.8827 647.384 82.728C646.339 79.5493 645.539 75.2613 644.984 69.864H634.84V74.088H643.032C643.011 75.6027 642.947 77.0107 642.84 78.312C642.755 79.6133 642.616 81.2347 642.424 83.176C642.275 84.6907 641.88 85.768 641.24 86.408C640.621 87.0267 639.544 87.3467 638.008 87.368C637.453 87.368 636.664 87.3253 635.64 87.24L635.032 84.392C635.992 84.4987 636.835 84.552 637.56 84.552C638.285 84.552 638.765 84.4027 639 84.104C639.256 83.784 639.448 83.208 639.576 82.376C639.704 81.2667 639.8 80.3173 639.864 79.528C639.928 78.7387 639.96 77.8533 639.96 76.872H634.84C634.797 80.1147 634.52 82.8027 634.008 84.936C633.496 87.0693 632.632 89.256 631.416 91.496L628.504 90.12C629.421 88.6053 630.115 87.2187 630.584 85.96C631.075 84.68 631.416 83.24 631.608 81.64C631.821 80.0187 631.928 77.9707 631.928 75.496V66.984H644.728L644.376 62.056H647.32L647.384 62.952C647.427 63.4 647.469 63.9547 647.512 64.616C647.555 65.256 647.619 66.0453 647.704 66.984H653.016C651.715 65.6187 650.552 64.4667 649.528 63.528L651.512 61.608C652.6 62.6107 653.912 63.9013 655.448 65.48L653.848 66.984H657.88V69.864H647.96C648.344 73.9387 648.877 77.2987 649.56 79.944C651.245 77.5547 652.611 74.792 653.656 71.656L656.312 72.744C654.904 76.7333 653.005 80.2427 650.616 83.272C651.107 84.4667 651.629 85.5013 652.184 86.376C652.589 86.952 652.931 87.3573 653.208 87.592C653.485 87.8053 653.763 87.912 654.04 87.912C654.36 87.912 654.627 87.7627 654.84 87.464C655.075 87.1653 655.288 86.5573 655.48 85.64C655.672 84.8293 655.907 83.6027 656.184 81.96L658.744 82.856Z" fill="white"/>
<path d="M178.59 121.432H189.582V123.712H181.158V129.16H188.694V131.44H181.158V139H178.59V121.432ZM192.294 132.76C192.294 131.496 192.574 130.368 193.134 129.376C193.694 128.384 194.438 127.616 195.366 127.072C196.31 126.528 197.326 126.256 198.414 126.256C199.486 126.256 200.486 126.528 201.414 127.072C202.342 127.616 203.086 128.384 203.646 129.376C204.206 130.368 204.486 131.496 204.486 132.76C204.486 134.024 204.206 135.152 203.646 136.144C203.086 137.136 202.342 137.904 201.414 138.448C200.486 138.992 199.486 139.264 198.414 139.264C197.326 139.264 196.31 138.992 195.366 138.448C194.438 137.904 193.694 137.136 193.134 136.144C192.574 135.152 192.294 134.024 192.294 132.76ZM194.886 132.76C194.886 134.072 195.214 135.112 195.87 135.88C196.542 136.648 197.382 137.032 198.39 137.032C199.414 137.032 200.254 136.648 200.91 135.88C201.566 135.112 201.894 134.072 201.894 132.76C201.894 131.448 201.558 130.408 200.886 129.64C200.23 128.872 199.398 128.488 198.39 128.488C197.382 128.488 196.542 128.872 195.87 129.64C195.214 130.408 194.886 131.448 194.886 132.76ZM214.632 126.256C215.048 126.256 215.432 126.312 215.784 126.424C216.152 126.536 216.44 126.688 216.648 126.88L215.712 128.824C215.344 128.6 214.936 128.488 214.488 128.488C213.576 128.488 212.832 128.864 212.256 129.616C211.696 130.368 211.416 131.44 211.416 132.832V139H208.944V126.544H211.128C211.16 127.312 211.208 127.984 211.272 128.56C211.64 127.792 212.104 127.216 212.664 126.832C213.24 126.448 213.896 126.256 214.632 126.256ZM224.529 126.256C225.617 126.256 226.569 126.512 227.385 127.024C228.201 127.52 228.833 128.208 229.281 129.088C229.729 129.952 229.953 130.928 229.953 132.016C229.953 132.384 229.913 132.824 229.833 133.336H221.097C221.193 134.584 221.577 135.528 222.249 136.168C222.921 136.792 223.761 137.104 224.769 137.104C226.081 137.104 227.033 136.56 227.625 135.472L229.473 136.552C229.153 137.416 228.545 138.088 227.649 138.568C226.753 139.032 225.753 139.264 224.649 139.264C223.513 139.264 222.481 139.016 221.553 138.52C220.625 138.008 219.881 137.256 219.321 136.264C218.777 135.272 218.505 134.088 218.505 132.712C218.505 131.368 218.777 130.208 219.321 129.232C219.881 128.256 220.617 127.52 221.529 127.024C222.457 126.512 223.457 126.256 224.529 126.256ZM224.433 128.416C223.617 128.416 222.905 128.68 222.297 129.208C221.705 129.72 221.329 130.472 221.169 131.464H227.361C227.297 130.504 227.001 129.76 226.473 129.232C225.945 128.688 225.265 128.416 224.433 128.416ZM235.278 126.544L238.902 135.784L242.31 126.544H244.878L239.766 139H237.774L232.494 126.544H235.278ZM253.296 126.256C254.384 126.256 255.336 126.512 256.152 127.024C256.968 127.52 257.6 128.208 258.048 129.088C258.496 129.952 258.72 130.928 258.72 132.016C258.72 132.384 258.68 132.824 258.6 133.336H249.864C249.96 134.584 250.344 135.528 251.016 136.168C251.688 136.792 252.528 137.104 253.536 137.104C254.848 137.104 255.8 136.56 256.392 135.472L258.24 136.552C257.92 137.416 257.312 138.088 256.416 138.568C255.52 139.032 254.52 139.264 253.416 139.264C252.28 139.264 251.248 139.016 250.32 138.52C249.392 138.008 248.648 137.256 248.088 136.264C247.544 135.272 247.272 134.088 247.272 132.712C247.272 131.368 247.544 130.208 248.088 129.232C248.648 128.256 249.384 127.52 250.296 127.024C251.224 126.512 252.224 126.256 253.296 126.256ZM253.2 128.416C252.384 128.416 251.672 128.68 251.064 129.208C250.472 129.72 250.096 130.472 249.936 131.464H256.128C256.064 130.504 255.768 129.76 255.24 129.232C254.712 128.688 254.032 128.416 253.2 128.416ZM268.555 126.256C268.971 126.256 269.355 126.312 269.707 126.424C270.075 126.536 270.363 126.688 270.571 126.88L269.635 128.824C269.267 128.6 268.859 128.488 268.411 128.488C267.499 128.488 266.755 128.864 266.179 129.616C265.619 130.368 265.339 131.44 265.339 132.832V139H262.867V126.544H265.051C265.083 127.312 265.131 127.984 265.195 128.56C265.563 127.792 266.027 127.216 266.587 126.832C267.163 126.448 267.819 126.256 268.555 126.256ZM283.318 124.528C282.902 124.528 282.542 124.368 282.238 124.048C281.934 123.728 281.782 123.352 281.782 122.92C281.782 122.488 281.934 122.12 282.238 121.816C282.542 121.496 282.902 121.336 283.318 121.336C283.766 121.336 284.142 121.496 284.446 121.816C284.75 122.12 284.902 122.488 284.902 122.92C284.902 123.352 284.742 123.728 284.422 124.048C284.118 124.368 283.75 124.528 283.318 124.528ZM284.566 139H282.094V126.544H284.566V139ZM298.438 135.4C298.438 136.568 297.99 137.504 297.094 138.208C296.214 138.912 295.062 139.264 293.638 139.264C292.374 139.264 291.294 138.992 290.398 138.448C289.502 137.904 288.902 137.152 288.598 136.192L290.446 135.112C290.718 135.784 291.126 136.296 291.67 136.648C292.214 136.984 292.87 137.152 293.638 137.152C294.326 137.152 294.87 137.016 295.27 136.744C295.686 136.456 295.894 136.064 295.894 135.568C295.894 135.184 295.766 134.872 295.51 134.632C295.27 134.376 294.958 134.176 294.574 134.032C294.206 133.888 293.694 133.72 293.038 133.528C292.174 133.288 291.478 133.056 290.95 132.832C290.438 132.608 289.99 132.28 289.606 131.848C289.238 131.4 289.054 130.808 289.054 130.072C289.054 129.304 289.262 128.632 289.678 128.056C290.11 127.464 290.678 127.016 291.382 126.712C292.102 126.408 292.894 126.256 293.758 126.256C294.894 126.256 295.862 126.504 296.662 127C297.478 127.496 298.022 128.168 298.294 129.016L296.446 130.072C296.206 129.544 295.846 129.136 295.366 128.848C294.902 128.56 294.342 128.416 293.686 128.416C293.062 128.416 292.558 128.544 292.174 128.8C291.79 129.04 291.598 129.392 291.598 129.856C291.598 130.208 291.71 130.496 291.934 130.72C292.174 130.928 292.47 131.104 292.822 131.248C293.174 131.376 293.67 131.528 294.31 131.704C295.174 131.944 295.878 132.184 296.422 132.424C296.982 132.664 297.454 133.024 297.838 133.504C298.238 133.984 298.438 134.616 298.438 135.4ZM315.97 137.032C317.09 137.032 317.986 136.512 318.658 135.472L320.554 136.576C320.122 137.472 319.506 138.144 318.706 138.592C317.922 139.04 317.018 139.264 315.994 139.264C314.874 139.264 313.85 139 312.922 138.472C311.994 137.944 311.258 137.192 310.714 136.216C310.17 135.224 309.898 134.072 309.898 132.76C309.898 131.448 310.17 130.304 310.714 129.328C311.258 128.336 311.994 127.576 312.922 127.048C313.85 126.52 314.874 126.256 315.994 126.256C317.018 126.256 317.922 126.48 318.706 126.928C319.506 127.376 320.122 128.048 320.554 128.944L318.658 130.048C317.986 129.024 317.09 128.512 315.97 128.512C314.93 128.512 314.09 128.896 313.45 129.664C312.81 130.416 312.49 131.448 312.49 132.76C312.49 134.088 312.81 135.136 313.45 135.904C314.09 136.656 314.93 137.032 315.97 137.032ZM323.391 132.76C323.391 131.496 323.671 130.368 324.231 129.376C324.791 128.384 325.535 127.616 326.463 127.072C327.407 126.528 328.423 126.256 329.511 126.256C330.583 126.256 331.583 126.528 332.511 127.072C333.439 127.616 334.183 128.384 334.743 129.376C335.303 130.368 335.583 131.496 335.583 132.76C335.583 134.024 335.303 135.152 334.743 136.144C334.183 137.136 333.439 137.904 332.511 138.448C331.583 138.992 330.583 139.264 329.511 139.264C328.423 139.264 327.407 138.992 326.463 138.448C325.535 137.904 324.791 137.136 324.231 136.144C323.671 135.152 323.391 134.024 323.391 132.76ZM325.983 132.76C325.983 134.072 326.311 135.112 326.967 135.88C327.639 136.648 328.479 137.032 329.487 137.032C330.511 137.032 331.351 136.648 332.007 135.88C332.663 135.112 332.991 134.072 332.991 132.76C332.991 131.448 332.655 130.408 331.983 129.64C331.327 128.872 330.495 128.488 329.487 128.488C328.479 128.488 327.639 128.872 326.967 129.64C326.311 130.408 325.983 131.448 325.983 132.76ZM353.361 126.256C354.545 126.256 355.505 126.696 356.241 127.576C356.993 128.44 357.369 129.688 357.369 131.32V139H354.969V132.136C354.969 131 354.777 130.12 354.393 129.496C354.009 128.856 353.433 128.536 352.665 128.536C351.881 128.536 351.225 128.856 350.697 129.496C350.185 130.12 349.929 131.016 349.929 132.184V139H347.505V132.136C347.505 130.984 347.313 130.096 346.929 129.472C346.561 128.848 345.993 128.536 345.225 128.536C344.441 128.536 343.785 128.856 343.257 129.496C342.745 130.136 342.489 131.032 342.489 132.184V139H340.041V126.544H342.201C342.217 127.056 342.257 127.68 342.321 128.416C342.737 127.696 343.257 127.16 343.881 126.808C344.505 126.44 345.193 126.256 345.945 126.256C346.777 126.256 347.505 126.48 348.129 126.928C348.769 127.36 349.241 128 349.545 128.848C349.945 127.984 350.473 127.336 351.129 126.904C351.801 126.472 352.545 126.256 353.361 126.256ZM368.825 126.256C369.785 126.256 370.681 126.52 371.513 127.048C372.361 127.56 373.041 128.312 373.553 129.304C374.065 130.28 374.321 131.432 374.321 132.76C374.321 134.104 374.065 135.272 373.553 136.264C373.041 137.24 372.361 137.984 371.513 138.496C370.681 139.008 369.785 139.264 368.825 139.264C368.025 139.264 367.273 139.088 366.569 138.736C365.865 138.384 365.289 137.856 364.841 137.152V144.568H362.369V126.544H364.553C364.585 127.344 364.633 128.024 364.697 128.584C365.145 127.816 365.729 127.24 366.449 126.856C367.185 126.456 367.977 126.256 368.825 126.256ZM368.393 137.008C369.417 137.008 370.233 136.64 370.841 135.904C371.449 135.152 371.753 134.104 371.753 132.76C371.753 131.432 371.441 130.392 370.817 129.64C370.209 128.872 369.401 128.488 368.393 128.488C367.417 128.488 366.577 128.84 365.873 129.544C365.185 130.248 364.841 131.32 364.841 132.76C364.841 134.216 365.185 135.288 365.873 135.976C366.577 136.664 367.417 137.008 368.393 137.008ZM378.072 132.76C378.072 131.496 378.352 130.368 378.912 129.376C379.472 128.384 380.216 127.616 381.144 127.072C382.088 126.528 383.104 126.256 384.192 126.256C385.264 126.256 386.264 126.528 387.192 127.072C388.12 127.616 388.864 128.384 389.424 129.376C389.984 130.368 390.264 131.496 390.264 132.76C390.264 134.024 389.984 135.152 389.424 136.144C388.864 137.136 388.12 137.904 387.192 138.448C386.264 138.992 385.264 139.264 384.192 139.264C383.104 139.264 382.088 138.992 381.144 138.448C380.216 137.904 379.472 137.136 378.912 136.144C378.352 135.152 378.072 134.024 378.072 132.76ZM380.664 132.76C380.664 134.072 380.992 135.112 381.648 135.88C382.32 136.648 383.16 137.032 384.168 137.032C385.192 137.032 386.032 136.648 386.688 135.88C387.344 135.112 387.672 134.072 387.672 132.76C387.672 131.448 387.336 130.408 386.664 129.64C386.008 128.872 385.176 128.488 384.168 128.488C383.16 128.488 382.32 128.872 381.648 129.64C380.992 130.408 380.664 131.448 380.664 132.76ZM403.386 135.4C403.386 136.568 402.938 137.504 402.042 138.208C401.162 138.912 400.01 139.264 398.586 139.264C397.322 139.264 396.242 138.992 395.346 138.448C394.45 137.904 393.85 137.152 393.546 136.192L395.394 135.112C395.666 135.784 396.074 136.296 396.618 136.648C397.162 136.984 397.818 137.152 398.586 137.152C399.274 137.152 399.818 137.016 400.218 136.744C400.634 136.456 400.842 136.064 400.842 135.568C400.842 135.184 400.714 134.872 400.458 134.632C400.218 134.376 399.906 134.176 399.522 134.032C399.154 133.888 398.642 133.72 397.986 133.528C397.122 133.288 396.426 133.056 395.898 132.832C395.386 132.608 394.938 132.28 394.554 131.848C394.186 131.4 394.002 130.808 394.002 130.072C394.002 129.304 394.21 128.632 394.626 128.056C395.058 127.464 395.626 127.016 396.33 126.712C397.05 126.408 397.842 126.256 398.706 126.256C399.842 126.256 400.81 126.504 401.61 127C402.426 127.496 402.97 128.168 403.242 129.016L401.394 130.072C401.154 129.544 400.794 129.136 400.314 128.848C399.85 128.56 399.29 128.416 398.634 128.416C398.01 128.416 397.506 128.544 397.122 128.8C396.738 129.04 396.546 129.392 396.546 129.856C396.546 130.208 396.658 130.496 396.882 130.72C397.122 130.928 397.418 131.104 397.77 131.248C398.122 131.376 398.618 131.528 399.258 131.704C400.122 131.944 400.826 132.184 401.37 132.424C401.93 132.664 402.402 133.024 402.786 133.504C403.186 133.984 403.386 134.616 403.386 135.4ZM412.721 126.256C413.809 126.256 414.761 126.512 415.577 127.024C416.393 127.52 417.025 128.208 417.473 129.088C417.921 129.952 418.145 130.928 418.145 132.016C418.145 132.384 418.105 132.824 418.025 133.336H409.289C409.385 134.584 409.769 135.528 410.441 136.168C411.113 136.792 411.953 137.104 412.961 137.104C414.273 137.104 415.225 136.56 415.817 135.472L417.665 136.552C417.345 137.416 416.737 138.088 415.841 138.568C414.945 139.032 413.945 139.264 412.841 139.264C411.705 139.264 410.673 139.016 409.745 138.52C408.817 138.008 408.073 137.256 407.513 136.264C406.969 135.272 406.697 134.088 406.697 132.712C406.697 131.368 406.969 130.208 407.513 129.232C408.073 128.256 408.809 127.52 409.721 127.024C410.649 126.512 411.649 126.256 412.721 126.256ZM412.625 128.416C411.809 128.416 411.097 128.68 410.489 129.208C409.897 129.72 409.521 130.472 409.361 131.464H415.553C415.489 130.504 415.193 129.76 414.665 129.232C414.137 128.688 413.457 128.416 412.625 128.416ZM431.076 120.736H433.524V139H431.364C431.284 137.912 431.228 137.232 431.196 136.96C430.748 137.728 430.156 138.304 429.42 138.688C428.7 139.072 427.932 139.264 427.116 139.264C426.14 139.264 425.228 139.008 424.38 138.496C423.532 137.984 422.852 137.24 422.34 136.264C421.828 135.272 421.572 134.104 421.572 132.76C421.572 131.432 421.828 130.28 422.34 129.304C422.852 128.312 423.532 127.56 424.38 127.048C425.228 126.52 426.14 126.256 427.116 126.256C427.9 126.256 428.636 126.432 429.324 126.784C430.028 127.136 430.612 127.656 431.076 128.344V120.736ZM427.524 137.056C428.5 137.056 429.332 136.704 430.02 136C430.724 135.296 431.076 134.216 431.076 132.76C431.076 131.32 430.724 130.256 430.02 129.568C429.332 128.88 428.5 128.536 427.524 128.536C426.5 128.536 425.676 128.904 425.052 129.64C424.444 130.376 424.14 131.416 424.14 132.76C424.14 134.12 424.444 135.176 425.052 135.928C425.676 136.68 426.5 137.056 427.524 137.056ZM446.143 132.76C446.143 131.496 446.423 130.368 446.983 129.376C447.543 128.384 448.287 127.616 449.215 127.072C450.159 126.528 451.175 126.256 452.263 126.256C453.335 126.256 454.335 126.528 455.263 127.072C456.191 127.616 456.935 128.384 457.495 129.376C458.055 130.368 458.335 131.496 458.335 132.76C458.335 134.024 458.055 135.152 457.495 136.144C456.935 137.136 456.191 137.904 455.263 138.448C454.335 138.992 453.335 139.264 452.263 139.264C451.175 139.264 450.159 138.992 449.215 138.448C448.287 137.904 447.543 137.136 446.983 136.144C446.423 135.152 446.143 134.024 446.143 132.76ZM448.735 132.76C448.735 134.072 449.063 135.112 449.719 135.88C450.391 136.648 451.231 137.032 452.239 137.032C453.263 137.032 454.103 136.648 454.759 135.88C455.415 135.112 455.743 134.072 455.743 132.76C455.743 131.448 455.407 130.408 454.735 129.64C454.079 128.872 453.247 128.488 452.239 128.488C451.231 128.488 450.391 128.872 449.719 129.64C449.063 130.408 448.735 131.448 448.735 132.76ZM467.79 122.704C467.15 122.704 466.662 122.92 466.326 123.352C466.006 123.784 465.846 124.528 465.846 125.584V126.544H469.086V128.632H465.846V139H463.374V128.632H461.214V126.544H463.374V125.512C463.374 123.784 463.774 122.512 464.574 121.696C465.374 120.864 466.398 120.448 467.646 120.448C468.222 120.448 468.742 120.528 469.206 120.688C469.67 120.848 470.038 121.056 470.31 121.312L469.35 123.184C468.886 122.864 468.366 122.704 467.79 122.704ZM487.373 126.256C488.717 126.256 489.789 126.696 490.589 127.576C491.389 128.456 491.789 129.728 491.789 131.392V139H489.317V132.136C489.317 130.984 489.101 130.096 488.669 129.472C488.237 128.848 487.581 128.536 486.701 128.536C485.805 128.536 485.037 128.856 484.397 129.496C483.773 130.12 483.461 131.016 483.461 132.184V139H480.989V126.544H483.173C483.205 127.328 483.253 128.008 483.317 128.584C483.733 127.816 484.285 127.24 484.973 126.856C485.677 126.456 486.477 126.256 487.373 126.256ZM496.059 132.76C496.059 131.496 496.339 130.368 496.899 129.376C497.459 128.384 498.203 127.616 499.131 127.072C500.075 126.528 501.091 126.256 502.179 126.256C503.251 126.256 504.251 126.528 505.179 127.072C506.107 127.616 506.851 128.384 507.411 129.376C507.971 130.368 508.251 131.496 508.251 132.76C508.251 134.024 507.971 135.152 507.411 136.144C506.851 137.136 506.107 137.904 505.179 138.448C504.251 138.992 503.251 139.264 502.179 139.264C501.091 139.264 500.075 138.992 499.131 138.448C498.203 137.904 497.459 137.136 496.899 136.144C496.339 135.152 496.059 134.024 496.059 132.76ZM498.651 132.76C498.651 134.072 498.979 135.112 499.635 135.88C500.307 136.648 501.147 137.032 502.155 137.032C503.179 137.032 504.019 136.648 504.675 135.88C505.331 135.112 505.659 134.072 505.659 132.76C505.659 131.448 505.323 130.408 504.651 129.64C503.995 128.872 503.163 128.488 502.155 128.488C501.147 128.488 500.307 128.872 499.635 129.64C498.979 130.408 498.651 131.448 498.651 132.76ZM521.049 126.544L524.097 135.376L526.929 126.544H529.281L524.841 139H523.161L519.993 130.384L516.969 139H515.265L510.633 126.544H513.201L516.249 135.424L519.057 126.544H521.049ZM541.334 135.4C541.334 136.568 540.886 137.504 539.99 138.208C539.11 138.912 537.958 139.264 536.534 139.264C535.27 139.264 534.19 138.992 533.294 138.448C532.398 137.904 531.798 137.152 531.494 136.192L533.342 135.112C533.614 135.784 534.022 136.296 534.566 136.648C535.11 136.984 535.766 137.152 536.534 137.152C537.222 137.152 537.766 137.016 538.166 136.744C538.582 136.456 538.79 136.064 538.79 135.568C538.79 135.184 538.662 134.872 538.406 134.632C538.166 134.376 537.854 134.176 537.47 134.032C537.102 133.888 536.59 133.72 535.934 133.528C535.07 133.288 534.374 133.056 533.846 132.832C533.334 132.608 532.886 132.28 532.502 131.848C532.134 131.4 531.95 130.808 531.95 130.072C531.95 129.304 532.158 128.632 532.574 128.056C533.006 127.464 533.574 127.016 534.278 126.712C534.998 126.408 535.79 126.256 536.654 126.256C537.79 126.256 538.758 126.504 539.558 127C540.374 127.496 540.918 128.168 541.19 129.016L539.342 130.072C539.102 129.544 538.742 129.136 538.262 128.848C537.798 128.56 537.238 128.416 536.582 128.416C535.958 128.416 535.454 128.544 535.07 128.8C534.686 129.04 534.494 129.392 534.494 129.856C534.494 130.208 534.606 130.496 534.83 130.72C535.07 130.928 535.366 131.104 535.718 131.248C536.07 131.376 536.566 131.528 537.206 131.704C538.07 131.944 538.774 132.184 539.318 132.424C539.878 132.664 540.35 133.024 540.734 133.504C541.134 133.984 541.334 134.616 541.334 135.4ZM546.494 139.288C546.062 139.288 545.694 139.128 545.39 138.808C545.102 138.488 544.958 138.112 544.958 137.68C544.958 137.232 545.102 136.856 545.39 136.552C545.694 136.232 546.062 136.072 546.494 136.072C546.942 136.072 547.318 136.232 547.622 136.552C547.926 136.856 548.078 137.232 548.078 137.68C548.078 138.112 547.918 138.488 547.598 138.808C547.294 139.128 546.926 139.288 546.494 139.288Z" fill="white"/>
</svg>
