<svg width="1346" height="906" viewBox="0 0 1346 906" fill="none" xmlns="http://www.w3.org/2000/svg">
<path fill-rule="evenodd" clip-rule="evenodd" d="M1346 0H0V906H1346V0ZM602.595 120.034C616.8 89.0385 617.967 86.8932 623.663 80.9012C628.33 76.0927 629.634 75.131 629.634 76.6845C629.634 77.0544 630.594 77.4243 631.693 77.4243C636.977 77.4243 641.781 81.7889 652.898 96.584C657.359 102.502 662.849 109.53 665.045 112.193C678.359 128.024 688.31 145.63 699.77 173.593C702.241 179.511 706.77 189.128 709.927 195.046C719.466 212.8 729.829 237.582 729.829 242.39C729.829 243.426 730.515 243.944 732.437 244.24C742.525 246.015 746.437 247.939 751.995 253.931C757.76 260.071 762.015 267.394 769.358 283.817L770.036 285.323C777.641 302.22 780.633 308.868 784.676 314.799C787.299 318.646 790.364 322.191 795.417 328.036L795.418 328.037L796.328 329.09C806.485 340.704 820.759 360.752 828.446 374.067C834.553 384.572 836.544 386.939 841.347 389.38C844.71 391.008 845.945 391.23 850.887 391.008C856.171 390.712 857.132 390.416 863.788 386.865C869.416 383.832 871.68 382.131 874.563 378.728L875.026 378.195L876.034 377.034C877.836 374.96 879.84 372.653 881.014 371.33C890.072 360.974 901.465 363.563 916.219 379.542C923.7 387.531 929.052 396.186 933.994 407.948C941.886 426.96 946.484 435.689 968.17 473.195C993.081 516.323 996.307 521.057 1015.93 543.472C1017.96 545.77 1019.83 547.901 1021.57 549.891C1021.87 549.846 1022.19 549.799 1022.53 549.75C1024.5 549.478 1026.44 549.101 1026.8 548.934C1028.06 548.39 1031.42 547.407 1033.08 547.114C1034.58 546.863 1034.86 546.884 1035.53 547.198C1036.16 547.512 1036.28 547.512 1036.48 547.219C1036.79 546.842 1039.16 546.8 1041.14 547.135C1041.89 547.282 1043.27 547.784 1044.26 548.286C1046.36 549.352 1048.09 549.687 1050.58 549.52C1052.56 549.373 1054.69 549.708 1059.71 550.942C1062.76 551.674 1063.55 552.093 1065.13 553.724C1065.84 554.456 1066.31 554.645 1068.29 555.021C1069.55 555.272 1070.97 555.481 1071.41 555.481C1071.92 555.481 1074.33 554.373 1077.93 552.448C1082.28 550.147 1083.9 549.415 1084.65 549.415C1085.2 549.415 1085.87 549.269 1086.15 549.101C1086.39 548.955 1087.41 548.746 1088.4 548.662C1089.82 548.558 1090.34 548.39 1091.01 547.825C1091.48 547.449 1092.39 547.01 1092.98 546.884C1093.77 546.717 1094.45 546.257 1095.16 545.462C1096.11 544.416 1096.34 544.29 1097.61 544.228C1098.36 544.186 1099.66 544.269 1100.49 544.416C1101.8 544.646 1102.07 544.625 1102.67 544.332C1103.46 543.893 1103.5 543.893 1106.14 544.311C1108.67 544.688 1110.45 545.441 1111.24 546.403C1111.56 546.8 1112.07 547.114 1112.43 547.114C1112.78 547.114 1113.49 547.282 1114.09 547.47C1114.64 547.679 1116.3 547.888 1117.72 547.972C1119.89 548.097 1120.41 548.202 1121.12 548.683C1122.78 549.854 1124.68 550.733 1126.81 551.256L1129.02 551.821L1129.06 552.929C1129.1 553.515 1129.34 554.31 1129.61 554.645C1130.01 555.168 1130.33 555.272 1131.43 555.272C1133.21 555.272 1135.66 555.983 1137.24 556.946C1138.03 557.448 1138.98 557.761 1139.89 557.866C1140.64 557.929 1141.67 558.201 1142.14 558.452C1143.37 559.058 1148.42 559.372 1149.41 558.912C1149.73 558.745 1150.24 558.619 1150.56 558.619C1151.23 558.619 1152.89 559.581 1153.36 560.251C1153.76 560.774 1154.39 560.795 1157.08 560.397C1157.87 560.293 1159.69 561.066 1160.99 562.071C1161.54 562.468 1161.58 562.468 1163.56 562.091C1164.62 561.882 1165.69 561.778 1165.89 561.84C1166.13 561.903 1167.11 561.757 1168.14 561.527C1169.17 561.297 1170.39 561.15 1170.83 561.192C1171.3 561.255 1172.45 561.234 1173.36 561.15C1174.62 561.025 1175.18 561.046 1175.49 561.255C1176.12 561.673 1176.44 561.61 1176.95 561.025C1177.31 560.627 1177.7 560.502 1178.57 560.502C1179.25 560.502 1180.47 560.313 1181.34 560.062C1182.72 559.686 1183.12 559.665 1184.62 559.874C1187.35 560.272 1188.81 560.857 1189.28 561.715C1189.48 562.133 1189.8 562.594 1189.95 562.719C1190.15 562.845 1191.69 563.096 1193.43 563.305C1195.17 563.493 1196.75 563.744 1196.95 563.849C1197.15 563.953 1197.42 564.455 1197.54 564.936C1197.78 565.752 1197.9 565.836 1199.28 565.982C1201.49 566.233 1202.24 566.505 1202.92 567.3C1203.55 568.116 1204.73 568.451 1207.02 568.451C1208.33 568.451 1208.96 568.639 1211.53 569.852C1213.15 570.647 1215.05 571.651 1215.72 572.09C1216.43 572.55 1217.3 573.032 1217.69 573.178C1218.44 573.471 1221.01 573.952 1223.07 574.203C1225.04 574.433 1226.07 574.914 1227.1 576.127C1227.81 576.964 1228.05 577.487 1227.89 578.01C1227.69 578.575 1227.85 578.889 1228.4 579.265C1228.84 579.558 1229.27 580.102 1229.43 580.499C1229.55 580.876 1229.9 581.294 1230.22 581.441C1230.5 581.566 1230.89 582.152 1231.01 582.738C1231.25 583.574 1231.6 583.993 1232.83 584.683C1233.66 585.143 1234.33 585.645 1234.33 585.75C1234.33 585.854 1234.76 586.168 1235.32 586.44C1235.87 586.712 1236.66 587.444 1237.1 588.093L1237.21 588.248C1237.66 588.867 1238.19 589.586 1238.48 589.933C1238.79 590.289 1239.07 590.77 1239.07 591.021C1239.07 591.502 1239.59 591.586 1243.3 591.732C1245.2 591.816 1246.38 592.025 1248.4 592.611L1251.01 593.385L1250.77 594.18C1250.57 594.912 1250.65 595.037 1251.91 595.602C1253.53 596.292 1254.09 597.129 1254.09 598.865C1254.09 599.995 1254.21 600.162 1255.71 601.104C1256.7 601.731 1257.37 602.4 1257.53 602.902C1257.84 603.948 1259.03 605.203 1260.01 605.475C1260.45 605.601 1260.8 605.789 1260.8 605.894C1260.8 605.998 1261.32 606.647 1261.91 607.295C1262.7 608.153 1262.94 608.655 1262.74 609.031C1262.07 610.286 1262.39 612.253 1263.37 613.403C1263.93 614.031 1265.19 615.767 1266.18 617.273C1267.13 618.779 1268.15 620.118 1268.43 620.264C1268.71 620.39 1270.17 620.704 1271.75 620.934C1276.26 621.645 1278.82 622.356 1279.77 623.13C1280.21 623.528 1281.55 624.239 1282.7 624.72C1284.63 625.494 1288.07 627.878 1288.07 628.422C1288.07 628.548 1288.47 628.883 1288.9 629.196C1290.24 630.096 1289.77 631.163 1287.4 632.459C1286.37 633.045 1285.3 633.777 1285.03 634.091C1284.12 635.2 1279.26 637.375 1275.43 638.338C1274.44 638.589 1271.36 639.028 1268.51 639.3C1265.27 639.613 1262.98 639.948 1262.31 640.199C1261.71 640.429 1261.04 640.618 1260.84 640.618C1260.65 640.618 1259.62 641.015 1258.55 641.475C1257.53 641.956 1256.06 642.479 1255.27 642.647C1254.52 642.814 1253.14 643.149 1252.19 643.379L1250.49 643.797L1249.58 643.358C1249.11 643.128 1248.59 642.918 1248.44 642.918C1248.32 642.918 1247.41 643.295 1246.38 643.755C1244.29 644.717 1242.04 645.115 1240.45 644.801C1239.9 644.697 1238.44 644.195 1237.29 643.693C1236.11 643.211 1234.57 642.626 1233.89 642.396C1233.18 642.165 1231.84 641.454 1230.89 640.827C1229.98 640.199 1228.88 639.467 1228.4 639.195L1227.57 638.693L1226.23 639.132C1225.48 639.362 1224.02 639.697 1222.99 639.865C1221.92 640.032 1220.3 640.346 1219.35 640.576L1217.61 640.994L1215.8 640.513C1214.81 640.241 1213.47 639.948 1212.87 639.885C1211.21 639.655 1208.68 640.262 1206.55 641.433C1204.61 642.479 1202.01 643.149 1198.33 643.525C1197.38 643.609 1195.96 643.902 1195.21 644.153C1192.6 644.989 1191.53 645.199 1190.74 644.969C1190.31 644.864 1189.64 644.801 1189.24 644.864C1188.81 644.927 1187.94 644.822 1187.27 644.655C1186.6 644.487 1185.13 644.299 1184.03 644.278C1181.97 644.215 1180.94 644.132 1174.42 643.358C1172.41 643.107 1170.24 642.981 1169.49 643.044C1168.62 643.128 1167.07 643.002 1165.45 642.751C1162.37 642.27 1161.62 642.312 1160.52 643.128C1159.53 643.818 1157.12 644.153 1152.73 644.215C1149.89 644.257 1143.41 643.923 1140.28 643.567C1139.3 643.441 1137.79 643.358 1136.92 643.337C1135.78 643.337 1134.67 643.128 1133.17 642.626C1131.04 641.914 1130.96 641.894 1127.56 641.998C1125.66 642.061 1123.41 642.228 1122.62 642.375C1120.05 642.835 1115.43 642.5 1113.02 641.684C1112.47 641.496 1111.2 641.35 1110.05 641.35C1108.32 641.35 1108.08 641.287 1107.96 640.91C1107.84 640.471 1106.62 640.115 1106.14 640.366C1106.02 640.429 1105.91 640.743 1105.91 641.036C1105.91 641.601 1104.17 643.525 1103.38 643.797C1102.39 644.153 1099.58 644.195 1098.4 643.86C1097.55 643.616 1096.7 643.574 1094.48 643.643C1095.33 644.581 1096.19 645.517 1097.05 646.446C1105.97 655.841 1109.06 659.688 1110.36 662.721C1114.34 671.894 1111.39 676.924 1097.81 683.878C1092.8 686.467 1092.11 686.615 1084.63 686.837C1080.31 686.985 1076.33 687.503 1075.85 687.873C1075.36 688.317 1073.92 690.906 1072.55 693.717C1071.18 696.528 1069.05 699.635 1067.75 700.671C1062.94 704.591 1055.19 707.772 1042.9 710.805C1031.92 713.468 1029.45 713.764 1017.03 714.356C1009.48 714.652 1001.04 715.318 998.366 715.836L993.356 716.797V719.312C993.356 722.567 995.072 726.044 1000.22 733.22C1002.55 736.475 1005.23 740.543 1006.19 742.319C1007.84 745.352 1007.9 745.574 1006.74 746.905C1006.05 747.719 1004.95 748.533 1004.2 748.829C1003.51 749.051 1002.28 750.678 1001.52 752.453C999.738 756.596 994.042 762.292 989.238 764.881C987.179 765.917 982.032 768.358 977.915 770.208C964.601 776.052 954.993 783.006 935.778 800.76C916.425 818.662 910.386 821.843 885.612 827.095C874.769 829.388 859.671 831.682 848.21 832.643C846.557 832.794 844.541 832.979 842.405 833.174C838.245 833.555 833.632 833.977 830.367 834.271C817.534 835.38 805.181 838.783 801.75 842.112C801.063 842.778 798.867 846.255 796.877 849.658C792.554 857.499 784.799 866.154 780.27 868.3C777.044 869.853 776.632 869.853 766.27 869.039C759.887 868.522 745.133 868.226 729.829 868.374L704.094 868.596L700.319 866.672C695.447 864.231 689.819 858.535 679.114 845.367C674.378 839.523 668.545 832.939 666.143 830.794C660.31 825.616 653.31 821.991 646.104 820.511C628.604 816.886 618.653 811.856 607.055 800.982C604.654 798.688 597.585 790.699 591.34 783.153C566.703 753.341 558.193 745.13 544.193 737.436C536.713 733.294 532.87 732.406 521.203 731.814C509.056 731.148 505.762 730.187 498.968 725.452C496.086 723.381 491.145 720.348 488.057 718.721C479.204 713.912 476.459 711.323 465.616 697.416C460.057 690.24 454.635 683.582 453.606 682.546C452.576 681.511 449.214 677.368 446.126 673.373C439.537 664.644 435.077 661.241 427.047 658.8C422.038 657.247 419.91 657.025 408.655 657.025C397.538 657.025 395.204 657.247 389.783 658.8C381.548 661.093 377.43 663.609 368.989 671.45C358.764 680.919 357.94 681.289 343.803 681.881C336.323 682.177 329.872 682.916 325.823 683.878C320.127 685.21 314.019 685.801 307.98 685.579C306.607 685.505 304.137 684.322 301.46 682.324C295.627 677.96 294.46 677.812 286.98 679.661C279.774 681.511 272.637 684.84 262.961 690.98C250.676 698.821 241.686 702.372 236.059 701.632L234 701.41L234.069 696.232C234.206 689.5 236.882 683.064 245.392 669.083C249.441 662.425 253.627 654.14 257.676 644.819C261.588 635.794 265.225 628.47 267.833 624.623C270.029 621.294 275.931 611.974 280.941 603.836C285.951 595.773 291.921 586.304 294.323 582.753C301.655 571.971 309.64 558.596 318.545 542.026C317.287 541.934 316.909 541.991 315.714 542.399C314.116 542.958 312.363 543.032 311.031 542.585C310.232 542.325 310.099 542.176 309.7 541.152C309.456 540.519 309.278 539.831 309.3 539.626C309.367 539.086 307.88 538.695 306.637 538.956C305.239 539.253 303.752 539.198 302.021 538.788C300.779 538.49 299.935 538.416 297.872 538.453L295.275 538.509L294.632 537.932C293.833 537.206 293.233 537.038 292.301 537.28C291.414 537.522 285.955 537.522 283.647 537.262C282.182 537.094 281.738 536.964 280.828 536.387C280.212 535.996 279.779 535.793 279.109 535.645C279.031 535.648 278.948 535.652 278.861 535.656L277.351 535.732L276.978 535.331L276.974 535.326L276.146 535.214L274.881 536.331C273.838 537.262 273.394 537.504 272.329 537.746C271.619 537.932 270.842 538.248 270.598 538.49C270.221 538.863 269.999 538.918 269.111 538.844C268.534 538.788 267.78 538.677 267.402 538.565C266.515 538.323 263.563 537.857 262.764 537.857C262.32 537.857 261.743 537.578 260.922 537.001C260.279 536.536 259.191 535.978 258.504 535.773L257.681 535.517C257.43 535.557 257.201 535.578 256.98 535.581L256.262 535.978C254.864 536.759 253.754 536.759 252.933 535.996C252.908 535.97 252.882 535.944 252.856 535.919C252.829 535.894 252.802 535.869 252.775 535.844C251.886 536.183 251.078 536.222 250.446 535.959C250.107 535.818 249.903 535.807 249.021 535.927C248.037 536.046 246.392 536.024 243.406 535.851C242.439 535.797 242.151 535.829 241.234 536.068C240.013 536.393 238.673 536.436 237.655 536.176C237.044 536.024 236.942 535.938 236.637 535.341C236.451 534.973 236.315 534.572 236.332 534.452C236.383 534.138 235.246 533.91 234.296 534.062C233.227 534.236 232.091 534.203 230.767 533.965C229.817 533.791 229.173 533.748 227.595 533.769L225.61 533.802L225.118 533.466C224.508 533.043 224.05 532.945 223.337 533.086C222.659 533.227 218.485 533.227 216.721 533.076C215.601 532.978 215.262 532.902 214.567 532.566C213.871 532.23 213.481 532.132 212.361 532.024L210.987 531.883L210.02 532.534C209.223 533.076 208.884 533.216 208.069 533.357C207.526 533.466 206.933 533.65 206.746 533.791C206.458 534.008 206.288 534.04 205.609 533.997C205.168 533.965 204.592 533.899 204.303 533.834C203.625 533.693 201.368 533.422 200.758 533.422C200.418 533.422 199.977 533.26 199.35 532.924C198.858 532.653 198.026 532.328 197.5 532.208L196.584 531.991L195.787 532.328C194.718 532.783 193.87 532.783 193.242 532.338C193.005 532.154 192.733 532.013 192.666 532.013C192.242 532.013 191.308 531.482 191.156 531.146C190.918 530.626 190.935 530.56 191.325 530.279C191.512 530.138 191.665 529.943 191.665 529.845C191.665 529.747 191.902 529.509 192.174 529.325C192.462 529.129 192.683 528.934 192.683 528.891C192.683 528.837 192.971 528.598 193.344 528.371C194.142 527.839 194.345 527.243 193.955 526.441C193.65 525.79 193.633 525.715 193.921 525.736C194.023 525.747 194.26 525.725 194.43 525.671C194.684 525.606 194.701 525.563 194.515 525.487C194.345 525.411 194.345 525.368 194.515 525.324C194.617 525.303 194.718 525.183 194.718 525.075C194.718 524.967 194.803 524.836 194.888 524.804C194.99 524.761 195.21 524.544 195.414 524.305C195.617 524.045 195.974 523.807 196.313 523.709C196.72 523.579 196.992 523.373 197.314 522.907C197.636 522.462 198.06 522.126 198.756 521.747C199.926 521.107 200.554 520.923 202.098 520.739L202.273 520.719C203.299 520.603 203.573 520.572 203.755 520.427C203.831 520.367 203.89 520.288 203.981 520.175C204.184 519.936 204.286 519.524 204.303 518.896C204.337 518.18 204.439 517.79 204.812 517.183C205.202 516.521 205.253 516.348 205.084 516.12C204.931 515.893 204.948 515.784 205.185 515.524C205.355 515.351 205.592 515.199 205.745 515.188C205.881 515.188 206.118 515.177 206.254 515.166C206.441 515.156 206.542 514.971 206.61 514.451C206.712 513.714 206.848 513.432 207.849 511.99C208.239 511.426 208.459 510.938 208.459 510.635C208.459 510.104 209.104 509.02 209.681 508.553C210.054 508.261 210.105 508.25 210.461 508.391C210.936 508.575 211.275 508.456 211.7 507.957C211.869 507.751 212.209 507.448 212.463 507.285C212.87 507.014 213.057 506.971 213.837 506.971C214.617 506.971 214.855 506.916 215.432 506.624C215.89 506.385 216.093 506.201 216.093 506.006C216.093 505.811 216.45 505.485 217.162 504.987C217.756 504.586 218.316 504.26 218.417 504.26C218.519 504.26 218.689 504.195 218.791 504.119C218.892 504.033 219.418 503.913 219.944 503.838C220.979 503.686 221.522 503.469 221.522 503.198C221.522 503.09 221.658 503.057 221.946 503.09C222.184 503.122 222.421 503.111 222.455 503.068C222.506 503.014 222.828 503.003 223.184 503.035C223.642 503.079 224.05 503.025 224.542 502.862C224.932 502.732 226.034 502.548 226.984 502.461C227.951 502.363 228.884 502.266 229.071 502.244C229.258 502.222 229.834 502.005 230.343 501.767C231.446 501.236 231.904 500.618 231.751 499.816L231.667 499.317L232.718 498.862C233.312 498.612 233.855 498.406 233.957 498.406C234.042 498.406 234.483 498.211 234.941 497.962C235.619 497.604 235.823 497.409 236.043 496.921C236.332 496.292 237.265 495.176 237.723 494.937C237.859 494.861 237.977 494.742 237.977 494.666C237.977 494.504 238.775 493.56 239.131 493.289C239.267 493.181 239.334 493.018 239.267 492.932C239.216 492.834 239.334 492.379 239.538 491.934C239.894 491.165 239.979 491.078 240.861 490.633C241.387 490.373 241.981 489.972 242.184 489.755C242.609 489.267 244.627 487.999 244.984 487.999C245.102 487.999 245.357 487.901 245.543 487.771C246.018 487.435 246.578 487.283 248.326 486.98C249.174 486.839 250.005 486.644 250.158 486.557C250.701 486.275 252.143 485.766 252.855 485.614C253.5 485.484 253.618 485.495 253.907 485.657C254.178 485.82 254.229 485.82 254.314 485.668C254.45 485.473 255.468 485.451 256.316 485.625C256.638 485.701 257.232 485.961 257.656 486.221C258.555 486.774 259.301 486.947 260.37 486.861C261.218 486.785 262.134 486.958 264.289 487.598C265.595 487.977 265.935 488.194 266.613 489.04C266.918 489.419 267.122 489.517 267.97 489.712C268.513 489.842 269.124 489.95 269.31 489.95C269.531 489.95 270.566 489.376 272.109 488.378C273.976 487.186 274.671 486.806 274.993 486.806C275.231 486.806 275.519 486.731 275.638 486.644C275.74 486.568 276.181 486.46 276.605 486.416C277.216 486.362 277.436 486.275 277.725 485.983C277.928 485.787 278.318 485.56 278.573 485.495C278.912 485.408 279.201 485.169 279.506 484.758C279.913 484.215 280.015 484.15 280.558 484.118C280.88 484.096 281.44 484.14 281.796 484.215C282.356 484.335 282.475 484.324 282.729 484.172C283.068 483.944 283.085 483.944 284.222 484.161C285.308 484.356 286.071 484.747 286.41 485.245C286.546 485.451 286.767 485.614 286.919 485.614C287.072 485.614 287.377 485.701 287.632 485.798C287.869 485.907 288.582 486.015 289.193 486.058C289.492 486.079 289.718 486.099 289.897 486.125C289.917 486.072 289.927 486.018 289.927 485.963C289.927 485.776 290.104 485.721 290.482 485.776C290.792 485.832 291.103 485.814 291.147 485.739C291.214 485.646 291.636 485.628 292.102 485.683C292.701 485.758 293.233 485.665 293.877 485.386C294.387 485.162 295.83 484.846 297.073 484.697C298.338 484.529 299.558 484.362 299.802 484.325C300.046 484.287 300.801 483.915 301.467 483.506C302.909 482.593 303.508 481.533 303.309 480.155L303.198 479.299L304.573 478.517C305.35 478.089 306.06 477.735 306.193 477.735C306.304 477.735 306.881 477.4 307.481 476.972C308.368 476.358 308.635 476.023 308.923 475.185C309.3 474.106 310.521 472.188 311.12 471.779C311.298 471.649 311.453 471.444 311.453 471.314C311.453 471.034 312.496 469.415 312.962 468.95C313.139 468.764 313.228 468.484 313.139 468.335C313.073 468.168 313.228 467.386 313.495 466.623C313.961 465.301 314.072 465.152 315.225 464.389C315.913 463.943 316.69 463.254 316.956 462.882C317.511 462.044 320.152 459.866 320.618 459.866C320.773 459.866 321.106 459.699 321.35 459.475C321.972 458.898 322.704 458.638 324.99 458.116C326.099 457.875 327.187 457.539 327.387 457.391C328.097 456.907 329.983 456.032 330.915 455.771C331.758 455.548 331.914 455.566 332.291 455.846C332.646 456.125 332.712 456.125 332.823 455.864C333.001 455.529 334.332 455.492 335.442 455.79C335.864 455.92 336.64 456.367 337.195 456.814C338.371 457.763 339.348 458.061 340.746 457.912C341.855 457.781 343.054 458.079 345.872 459.177C347.581 459.829 348.025 460.201 348.912 461.653C349.312 462.305 349.578 462.472 350.688 462.807C351.398 463.03 352.197 463.217 352.441 463.217C352.729 463.217 354.083 462.23 356.103 460.518C358.544 458.47 359.453 457.819 359.875 457.819C360.186 457.819 360.563 457.688 360.718 457.539C360.852 457.409 361.429 457.223 361.983 457.149C362.782 457.055 363.071 456.907 363.448 456.404C363.714 456.069 364.225 455.678 364.558 455.566C365.001 455.418 365.379 455.008 365.778 454.301C366.311 453.37 366.444 453.258 367.154 453.202C367.576 453.165 368.308 453.24 368.774 453.37C369.506 453.575 369.662 453.556 369.995 453.296C370.438 452.905 370.461 452.905 371.947 453.277C373.368 453.612 374.366 454.282 374.81 455.138C374.988 455.492 375.276 455.771 375.476 455.771C375.676 455.771 376.075 455.92 376.408 456.088C376.719 456.274 377.651 456.46 378.45 456.534C379.26 456.609 379.66 456.674 379.954 456.836C383.976 449.17 387.62 440.192 393.557 423.631C401.518 401.29 406.528 389.454 409.204 386.421C410.234 385.238 412.43 383.388 414.145 382.353C416.822 380.651 418.126 380.355 424.302 380.059L431.439 379.837L432.469 377.174C434.253 372.514 438.988 369.851 452.165 366.004C457.723 364.376 463.557 362.231 465.204 361.195C469.39 358.532 473.027 354.02 477.625 345.587C482.566 336.414 484.213 334.12 492.38 324.873C498.488 317.92 513.243 299.204 517.154 293.434C518.115 292.028 520.654 287.294 522.782 282.855C524.978 278.491 528.684 271.611 531.086 267.616C538.291 255.632 541.517 249.196 545.566 238.322C550.644 224.858 559.909 204.515 568.213 188.758C585.781 155.469 592.85 141.265 602.595 120.034ZM1273 252H863V328H1273V252ZM1158.82 280.88C1158.55 281.008 1158.13 281.083 1157.58 281.104C1156.38 281.104 1155.04 280.997 1153.54 280.784L1154.22 284.048C1155.43 284.197 1156.81 284.251 1158.34 284.208C1159.52 284.187 1160.42 284.027 1161.06 283.728C1161.7 283.429 1162.16 282.939 1162.44 282.256C1162.72 281.573 1162.86 280.613 1162.86 279.376V255.472H1159.66V278.384C1159.66 279.131 1159.59 279.696 1159.46 280.08C1159.34 280.464 1159.12 280.731 1158.82 280.88ZM1175.94 277.808C1172.59 268.933 1170.35 263.248 1169.22 260.752L1166.28 261.872C1167.13 263.835 1168.18 266.491 1169.42 269.84C1170.67 273.189 1171.79 276.261 1172.78 279.056L1175.94 277.808ZM1149.45 269.68C1148.42 272.688 1147.33 275.323 1146.15 277.584L1149.13 278.96C1150.32 276.592 1151.43 273.893 1152.46 270.864C1153.5 267.813 1154.33 264.912 1154.95 262.16L1151.75 261.488C1151.24 263.941 1150.47 266.672 1149.45 269.68ZM1178.89 267.696C1179.53 267.547 1180.13 267.44 1180.68 267.376C1182.15 267.141 1183.35 266.981 1184.26 266.896C1182.6 269.413 1181.42 271.088 1180.71 271.92C1180.48 272.197 1180.24 272.421 1180.01 272.592C1179.79 272.741 1179.49 272.88 1179.08 273.008L1179.72 276.016C1180.55 275.781 1181.26 275.611 1181.83 275.504C1183.75 275.077 1186.21 274.629 1189.19 274.16L1189.16 271.152L1183.85 272.368C1184.89 270.96 1186.11 269.168 1187.5 266.992C1188.88 264.816 1189.97 262.981 1190.76 261.488L1188.23 260.24C1187.68 261.328 1186.95 262.597 1186.06 264.048C1184.48 264.304 1183.29 264.485 1182.5 264.592C1183.1 263.653 1183.82 262.405 1184.65 260.848C1185.5 259.291 1186.29 257.765 1187.02 256.272L1184.26 255.056C1183.58 256.571 1182.75 258.235 1181.77 260.048C1180.79 261.861 1180.03 263.163 1179.5 263.952C1179.35 264.144 1179.18 264.304 1178.98 264.432C1178.81 264.56 1178.57 264.677 1178.25 264.784L1178.89 267.696ZM1205.29 280.528V256.528H1191.46V280.528H1188.9V283.344H1207.72V280.528H1205.29ZM1202.38 259.408V264.56H1194.34V259.408H1202.38ZM1202.38 272.4H1194.34V267.376H1202.38V272.4ZM1194.34 275.216H1202.38V280.528H1194.34V275.216ZM1184.33 281.328C1186.93 280.752 1188.65 280.4 1189.48 280.272L1189.19 277.264C1188.34 277.435 1186.66 277.797 1184.17 278.352C1181.69 278.907 1179.69 279.365 1178.15 279.728L1178.66 282.608C1179.84 282.309 1181.73 281.883 1184.33 281.328ZM1239.05 280.048C1239.33 278.96 1239.62 277.563 1239.94 275.856L1237.38 274.96C1237.11 276.603 1236.87 277.829 1236.68 278.64C1236.49 279.557 1236.27 280.165 1236.04 280.464C1235.83 280.763 1235.56 280.912 1235.24 280.912C1234.96 280.912 1234.69 280.805 1234.41 280.592C1234.13 280.357 1233.79 279.952 1233.38 279.376C1232.83 278.501 1232.31 277.467 1231.82 276.272C1234.21 273.243 1236.1 269.733 1237.51 265.744L1234.86 264.656C1233.81 267.792 1232.45 270.555 1230.76 272.944C1230.08 270.299 1229.54 266.939 1229.16 262.864H1239.08V259.984H1235.05L1236.65 258.48C1235.11 256.901 1233.8 255.611 1232.71 254.608L1230.73 256.528C1231.75 257.467 1232.91 258.619 1234.22 259.984H1228.9C1228.82 259.045 1228.75 258.256 1228.71 257.616C1228.67 256.955 1228.63 256.4 1228.58 255.952L1228.52 255.056H1225.58L1225.93 259.984H1213.13V268.496C1213.13 270.971 1213.02 273.019 1212.81 274.64C1212.62 276.24 1212.27 277.68 1211.78 278.96C1211.31 280.219 1210.62 281.605 1209.7 283.12L1212.62 284.496C1213.83 282.256 1214.7 280.069 1215.21 277.936C1215.72 275.803 1216 273.115 1216.04 269.872H1221.16C1221.16 270.853 1221.13 271.739 1221.06 272.528C1221 273.317 1220.9 274.267 1220.78 275.376C1220.65 276.208 1220.46 276.784 1220.2 277.104C1219.97 277.403 1219.49 277.552 1218.76 277.552C1218.03 277.552 1217.19 277.499 1216.23 277.392L1216.84 280.24C1217.86 280.325 1218.65 280.368 1219.21 280.368C1220.74 280.347 1221.82 280.027 1222.44 279.408C1223.08 278.768 1223.47 277.691 1223.62 276.176C1223.82 274.235 1223.95 272.613 1224.04 271.312C1224.15 270.011 1224.21 268.603 1224.23 267.088H1216.04V262.864H1226.18C1226.74 268.261 1227.54 272.549 1228.58 275.728C1226.69 277.883 1224.29 279.973 1221.38 282L1223.37 284.272C1225.76 282.544 1227.88 280.688 1229.74 278.704C1230.03 279.344 1230.33 279.899 1230.63 280.368C1231.55 281.776 1232.33 282.757 1232.97 283.312C1233.63 283.888 1234.38 284.176 1235.21 284.176C1236.15 284.176 1236.94 283.877 1237.58 283.28C1238.22 282.683 1238.71 281.605 1239.05 280.048ZM1267.05 256.304H1247.02V264.688H1267.05V256.304ZM1263.94 262.096H1250.12V258.992H1263.94V262.096ZM1249.03 270.032H1265.03V277.68H1268.01V267.216H1245.99V277.872H1249.03V270.032ZM1263.21 281.552C1265.58 282.661 1267.62 283.653 1269.35 284.528L1270.76 281.68C1269.05 280.891 1266.93 279.963 1264.39 278.896C1261.87 277.808 1259.72 276.923 1257.93 276.24L1257.96 276.112C1258.39 274.363 1258.64 272.752 1258.73 271.28H1255.62C1255.47 272.624 1255.31 273.723 1255.14 274.576C1254.91 275.749 1254.38 276.773 1253.54 277.648C1252.71 278.501 1251.44 279.259 1249.74 279.92C1248.03 280.581 1245.77 281.168 1242.95 281.68L1243.98 284.56C1250.59 283.28 1254.88 281.285 1256.84 278.576C1258.74 279.429 1260.86 280.421 1263.21 281.552ZM885.781 300.736V298.368H891.989V295.936H885.781V293.216H882.997V295.936H875.285V293.216H872.469V295.936H866.261V298.368H872.469V300.736H865.013V303.104H877.685V305.248H868.149V316.48H890.165V305.248H880.565V303.104H893.237V300.736H885.781ZM875.285 298.368H882.997V300.736H875.285V298.368ZM877.685 307.488V309.824H870.933V307.488H877.685ZM887.317 307.488V309.824H880.565V307.488H887.317ZM870.933 312H877.685V314.24H870.933V312ZM880.565 314.24V312H887.317V314.24H880.565ZM870.677 318.496C868.629 319.2 866.794 319.765 865.173 320.192L866.069 322.784C867.605 322.336 869.386 321.739 871.413 320.992C873.44 320.245 875.2 319.563 876.693 318.944L875.637 316.576C874.4 317.152 872.746 317.792 870.677 318.496ZM893.013 320.096C889.365 318.816 885.866 317.643 882.517 316.576L881.621 319.008C883.989 319.691 887.477 320.917 892.085 322.688L893.013 320.096ZM916.917 319.168C919.114 320.299 921.664 321.387 924.565 322.432L925.845 319.296C923.136 318.464 920.757 317.568 918.709 316.608C916.682 315.648 914.901 314.581 913.365 313.408C914.922 311.787 916.234 309.952 917.301 307.904C918.368 305.835 919.264 303.456 919.989 300.768H924.981V297.824H913.333C912.757 295.733 912.256 294.133 911.829 293.024L908.565 293.76C908.949 294.763 909.386 296.117 909.877 297.824H897.173V300.768H902.069C902.858 303.456 903.797 305.824 904.885 307.872C905.973 309.92 907.306 311.755 908.885 313.376C907.37 314.528 905.589 315.605 903.541 316.608C901.514 317.611 899.125 318.581 896.373 319.52L897.813 322.592C900.714 321.483 903.253 320.352 905.429 319.2C907.626 318.048 909.536 316.8 911.157 315.456C912.821 316.8 914.741 318.037 916.917 319.168ZM907.605 306.72C906.666 304.971 905.898 302.987 905.301 300.768H916.661C916.085 303.029 915.349 305.024 914.453 306.752C913.557 308.48 912.437 310.037 911.093 311.424C909.706 310.037 908.544 308.469 907.605 306.72ZM955.925 294.656H941.429V305.376C941.429 308.768 941.354 311.253 941.205 312.832C941.056 314.389 940.725 315.733 940.213 316.864C939.701 317.973 938.826 319.264 937.589 320.736L940.021 322.528C941.28 320.907 942.208 319.403 942.805 318.016C943.402 316.608 943.808 314.912 944.021 312.928H953.109V317.376C953.109 318.123 952.992 318.645 952.757 318.944C952.522 319.221 952.074 319.36 951.413 319.36C950.432 319.381 949.194 319.317 947.701 319.168L948.309 322.016C949.376 322.123 950.645 322.176 952.117 322.176C953.525 322.155 954.506 321.845 955.061 321.248C955.637 320.651 955.925 319.595 955.925 318.08V294.656ZM931.861 318.4C936.277 317.099 938.922 316.341 939.797 316.128L939.349 313.12L935.637 314.208V307.616H939.381V304.704H935.637V298.56H939.349V295.616H928.949V298.56H932.757V304.704H929.237V307.616H932.757V315.04C930.176 315.765 928.725 316.16 928.405 316.224L929.109 319.2L931.861 318.4ZM953.109 297.504V302.56H944.277V297.504H953.109ZM953.109 305.312V310.176H944.213C944.256 308.811 944.277 307.691 944.277 306.816V305.312H953.109ZM984.518 298.816H997.798V296.032H984.518V293.152H981.51V301.984H972.902V308.032C972.902 310.656 972.817 312.661 972.646 314.048C972.475 315.413 972.123 316.619 971.59 317.664C971.078 318.709 970.235 319.904 969.062 321.248L971.686 323.04C973.051 321.44 974.033 319.904 974.63 318.432C975.227 316.939 975.611 315.093 975.782 312.896H995.558V301.984H984.518V298.816ZM992.582 309.984H975.878V309.216V304.96H992.582V309.984ZM1005.22 297.472H1025.96V300.48H1028.9V294.656H1002.25V300.384H1005.22V297.472ZM1018.95 317.216C1020.02 317.344 1021.01 317.397 1021.93 317.376C1023.31 317.376 1024.27 317.109 1024.81 316.576C1025.36 316.021 1025.64 315.051 1025.64 313.664V305.92H1029.29V303.104H1025.64V299.968H1022.76V303.104H1016.01V305.92H1022.76V313.056C1022.76 313.76 1022.65 314.261 1022.44 314.56C1022.25 314.859 1021.84 315.008 1021.22 315.008C1020.5 315.008 1019.58 314.912 1018.47 314.72L1018.95 317.216ZM1003.37 303.936H1014.76V301.184H1003.37V303.936ZM1019.88 308.608C1019.69 308.331 1019.25 307.659 1018.57 306.592L1016.42 307.808C1017.96 310.219 1019 311.936 1019.56 312.96L1021.8 311.648L1019.88 308.608ZM1029.99 316.992L1030.21 313.856L1027.37 313.12C1027.26 315.211 1027.2 316.405 1027.17 316.704C1027.09 317.643 1026.88 318.283 1026.53 318.624C1026.21 318.965 1025.58 319.168 1024.65 319.232C1023.11 319.36 1021.56 319.424 1020.01 319.424C1018.38 319.424 1016.74 319.36 1015.08 319.232C1014.35 319.211 1013.87 319.019 1013.64 318.656C1013.4 318.272 1013.29 317.579 1013.29 316.576V309.92H1015.65V307.04H1001.64V309.92H1005.13L1005.09 310.784C1005.05 312.405 1004.92 313.707 1004.71 314.688C1004.52 315.648 1004.13 316.597 1003.56 317.536C1002.98 318.453 1002.08 319.509 1000.84 320.704L1003.24 322.528C1004.41 321.397 1005.33 320.299 1005.99 319.232C1006.65 318.165 1007.13 316.981 1007.43 315.68C1007.73 314.357 1007.9 312.747 1007.94 310.848L1007.97 309.92H1010.37V317.472C1010.37 318.581 1010.49 319.445 1010.73 320.064C1010.98 320.704 1011.39 321.163 1011.94 321.44C1012.5 321.717 1013.26 321.888 1014.25 321.952C1015.76 322.059 1017.57 322.112 1019.69 322.112C1021.8 322.112 1023.6 322.059 1025.09 321.952C1026.8 321.867 1028 321.525 1028.68 320.928C1029.38 320.331 1029.79 319.36 1029.89 318.016L1029.99 316.992ZM1056.84 313.536C1055.56 311.232 1054.75 308.48 1054.41 305.28V304.288V293.248H1051.56V303.424C1051.56 306.069 1051.33 308.288 1050.89 310.08C1050.44 311.872 1049.58 313.579 1048.33 315.2C1047.07 316.821 1045.21 318.528 1042.76 320.32L1044.9 322.624C1047.04 320.981 1048.77 319.296 1050.12 317.568C1051.46 315.84 1052.48 314.027 1053.16 312.128C1053.86 314.112 1054.81 315.957 1056.01 317.664C1057.22 319.371 1058.72 320.992 1060.49 322.528L1062.73 319.968C1060.1 317.984 1058.14 315.84 1056.84 313.536ZM1040.65 309.248C1041.54 310.272 1042.68 311.605 1044.07 313.248L1045.73 310.816C1044.05 309.024 1042.35 307.296 1040.65 305.632V305.056H1044.65V302.304H1040.65V297.888C1042.5 297.504 1043.9 297.184 1044.84 296.928L1044.23 294.24C1042.57 294.645 1040.69 295.061 1038.6 295.488C1036.51 295.893 1034.72 296.192 1033.22 296.384L1033.64 299.04C1034.75 298.891 1036.14 298.677 1037.83 298.4V302.304H1033.09V305.056H1037.61C1036.94 306.741 1036.14 308.384 1035.21 309.984C1034.27 311.584 1033.28 313.013 1032.23 314.272L1033.77 316.864C1035.2 315.157 1036.55 313.003 1037.83 310.4V322.528H1040.65V309.248ZM1059.81 303.648C1060.41 301.877 1060.92 300.235 1061.35 298.72L1058.76 297.92C1058.37 299.371 1057.88 300.981 1057.29 302.752C1056.69 304.523 1056.11 306.069 1055.56 307.392L1058.05 308.384C1058.63 306.997 1059.22 305.419 1059.81 303.648ZM1046.37 303.744C1046.93 305.621 1047.36 307.168 1047.65 308.384L1050.28 307.584C1049.47 304.704 1048.52 301.621 1047.43 298.336L1044.93 299.136C1045.34 300.331 1045.82 301.867 1046.37 303.744ZM1082.07 299.456H1084.89V297.888H1091.9V299.488H1094.77V297.888H1102.58V295.424H1094.77V293.12H1091.9V295.424H1084.89V293.12H1082.07V295.424H1074.29V297.888H1082.07V299.456ZM1078.74 309.632C1077.21 310.571 1075.48 311.435 1073.56 312.224L1074.62 314.592C1078.5 312.843 1081.53 311.019 1083.7 309.12V310.784H1094.26V309.056C1095.2 309.931 1096.3 310.731 1097.56 311.456C1098.84 312.181 1100.34 312.885 1102.07 313.568L1103.26 311.072C1100.57 310.048 1098.47 308.981 1096.95 307.872C1098.91 305.867 1100.42 304.267 1101.46 303.072V300.864H1091.99L1091.32 298.752L1088.92 299.36C1089.52 301.387 1090.18 303.125 1090.9 304.576C1091.65 306.027 1092.56 307.307 1093.62 308.416H1084.47C1085.96 306.965 1087.31 305.205 1088.5 303.136V300.896H1082.42L1082.97 300.096L1080.47 299.2C1079.81 300.267 1078.84 301.472 1077.56 302.816C1076.3 304.139 1074.99 305.28 1073.62 306.24L1075.06 308.416L1076.15 307.552C1076.9 308.128 1077.76 308.821 1078.74 309.632ZM1095.06 306.24C1094.23 305.344 1093.52 304.288 1092.92 303.072H1098.17C1097.08 304.267 1096.04 305.323 1095.06 306.24ZM1080.47 303.424L1080.73 303.136H1085.53C1084.99 303.989 1084.35 304.843 1083.61 305.696C1082.5 304.843 1081.45 304.085 1080.47 303.424ZM1080.7 308.352C1079.74 307.563 1078.77 306.837 1077.82 306.176L1079.06 304.992C1080 305.653 1081 306.4 1082.07 307.232C1081.96 307.317 1081.51 307.691 1080.7 308.352ZM1090.33 315.136H1099.93V312.768H1078.33V315.136H1082.65C1081.67 315.819 1080.42 316.565 1078.9 317.376C1077.39 318.165 1075.92 318.859 1074.49 319.456L1075.77 321.92C1077.37 321.173 1078.96 320.363 1080.54 319.488C1082.11 318.592 1083.4 317.792 1084.41 317.088L1082.93 315.136H1087.38V317.76C1087.38 318.464 1087.28 318.965 1087.06 319.264C1086.87 319.563 1086.42 319.712 1085.72 319.712C1084.93 319.712 1083.94 319.616 1082.74 319.424L1083.26 322.016C1084.56 322.165 1085.71 322.24 1086.71 322.24C1087.76 322.24 1088.54 322.112 1089.05 321.856C1089.56 321.621 1089.9 321.248 1090.07 320.736C1090.24 320.224 1090.33 319.499 1090.33 318.56V315.136ZM1098.55 317.312C1096.89 316.501 1095.43 315.808 1094.17 315.232L1092.92 317.472L1095.19 318.656C1098.35 320.32 1100.35 321.397 1101.21 321.888L1102.62 319.36C1101.59 318.805 1100.24 318.123 1098.55 317.312ZM1121.78 297.664H1134.42V294.88H1106.29V297.664H1118.93V301.12H1107.67V321.952H1110.58V303.936H1118.93V321.28H1121.78V303.936H1130.14V317.216C1130.14 318.005 1130.02 318.56 1129.78 318.88C1129.57 319.2 1129.16 319.36 1128.57 319.36C1127.61 319.36 1126.49 319.285 1125.21 319.136L1125.78 321.92C1126.87 322.048 1127.98 322.112 1129.11 322.112C1130.6 322.112 1131.63 321.803 1132.18 321.184C1132.76 320.565 1133.05 319.488 1133.05 317.952V301.12H1121.78V297.664ZM1122.65 307.424C1124.46 308.533 1126.2 309.728 1127.86 311.008L1129.3 308.864C1127.62 307.627 1125.85 306.453 1123.99 305.344L1122.65 307.424ZM1118.29 308.928C1116.4 307.541 1114.65 306.357 1113.05 305.376L1111.64 307.456C1113.62 308.693 1115.36 309.92 1116.85 311.136L1118.29 308.928ZM1122.39 313.568C1124.2 314.72 1125.9 315.936 1127.48 317.216L1129.05 315.104C1127.43 313.867 1125.69 312.672 1123.83 311.52L1122.39 313.568ZM1118.07 315.2C1116.56 314.048 1114.8 312.843 1112.79 311.584L1111.32 313.664C1113.2 314.859 1114.92 316.096 1116.5 317.376L1118.07 315.2ZM1146.01 299.264H1148.89V297.824H1155.89V299.264H1158.77V297.824H1166.65V295.264H1158.77V293.088H1155.89V295.264H1148.89V293.088H1146.01V295.264H1138.14V297.824H1146.01V299.264ZM1142.77 303.872C1143.86 302.613 1144.75 301.493 1145.43 300.512L1143.35 298.944C1142.69 299.947 1141.87 301.013 1140.89 302.144C1139.91 303.275 1138.93 304.267 1137.98 305.12L1139.58 307.168C1140.62 306.208 1141.69 305.109 1142.77 303.872ZM1167.16 320.384C1165.22 318.741 1163.69 317.109 1162.58 315.488C1163.24 314.144 1163.77 312.672 1164.15 311.072C1164.56 309.451 1164.86 307.573 1165.05 305.44H1166.61V302.912H1160.6C1161.03 301.675 1161.37 300.469 1161.62 299.296L1159.13 299.008C1158.87 300.416 1158.43 301.909 1157.82 303.488C1157.22 305.045 1156.51 306.421 1155.7 307.616L1157.11 309.984L1157.65 309.184C1158.06 311.637 1158.73 313.781 1159.67 315.616C1158.67 317.259 1157.17 318.933 1155.19 320.64L1156.92 322.688C1158.67 321.024 1160.07 319.445 1161.11 317.952C1162.11 319.381 1163.54 320.939 1165.4 322.624L1167.16 320.384ZM1156.05 300.576H1153.91V304.064H1152.18V299.232H1149.91V304.064H1148.21V300.576H1146.04V306.304H1156.05V300.576ZM1143.8 309.088C1144.52 308.064 1145.19 306.987 1145.78 305.856L1143.77 304.608C1143 305.995 1142.06 307.435 1140.95 308.928C1139.86 310.4 1138.81 311.616 1137.78 312.576L1138.81 315.008C1139.66 314.219 1140.46 313.376 1141.21 312.48V322.432H1143.8V309.088ZM1161.08 312.864C1160.16 310.88 1159.58 308.64 1159.32 306.144C1159.49 305.76 1159.6 305.525 1159.64 305.44H1162.71C1162.41 308.384 1161.87 310.859 1161.08 312.864ZM1145.98 310.56H1155.61V308.224H1145.98V310.56ZM1153.53 319.84C1154.25 319.243 1155.56 318.357 1157.46 317.184L1156.7 314.912L1155.26 315.968C1155.13 316.053 1155.01 316.139 1154.9 316.224C1154.8 316.288 1154.71 316.341 1154.65 316.384V312.352H1146.52V315.136C1146.52 316.416 1146.36 317.419 1146.04 318.144C1145.74 318.869 1145.11 319.701 1144.15 320.64L1146.14 322.368C1147.12 321.216 1147.83 320.107 1148.28 319.04C1148.75 317.973 1148.98 316.885 1148.98 315.776V314.688H1152.18V317.504C1152.14 317.824 1151.92 318.165 1151.51 318.528L1152.79 320.448C1152.9 320.341 1153.14 320.139 1153.53 319.84ZM1188.39 297.92C1187.79 296.085 1187.22 294.432 1186.66 292.96L1183.91 293.632C1184.47 294.955 1185 296.384 1185.51 297.92H1178.63V300.864H1189.16C1188.65 303.915 1187.93 306.517 1187.02 308.672C1184.88 305.856 1183.13 303.605 1181.77 301.92L1179.56 303.68C1181.82 306.624 1183.81 309.259 1185.51 311.584C1184.66 313.013 1183.62 314.389 1182.41 315.712C1181.19 317.035 1179.72 318.389 1177.99 319.776L1180.2 322.144C1183.29 319.456 1185.69 316.8 1187.4 314.176C1189.11 316.544 1190.55 318.571 1191.72 320.256L1194.06 318.208C1192.78 316.373 1191.1 314.091 1189.03 311.36C1190.48 308.373 1191.53 304.875 1192.17 300.864H1194.76V297.92H1188.39ZM1205.77 293.44H1202.82V317.312C1202.82 318.123 1202.7 318.656 1202.44 318.912C1202.21 319.168 1201.69 319.296 1200.9 319.296C1199.88 319.296 1198.77 319.211 1197.58 319.04L1198.12 321.984C1199.1 322.091 1200.29 322.144 1201.67 322.144C1203.23 322.144 1204.3 321.845 1204.87 321.248C1205.47 320.651 1205.77 319.648 1205.77 318.24V293.44ZM1199.46 296.224H1196.55V315.488H1199.46V296.224ZM1233.16 298.336H1239.4V295.776H1227.37C1226.94 294.795 1226.48 293.803 1225.99 292.8L1222.98 293.44C1223.37 294.251 1223.72 295.029 1224.04 295.776H1211.3V298.336H1217.8L1218.86 302.208H1213.45V307.424C1213.45 309.621 1213.34 311.445 1213.13 312.896C1212.94 314.325 1212.59 315.659 1212.1 316.896C1211.63 318.133 1210.93 319.509 1209.99 321.024L1212.78 322.592C1214.12 320.309 1215.06 318.123 1215.59 316.032C1216.15 313.92 1216.42 311.371 1216.42 308.384V304.736H1238.82V302.208H1231.94C1232.48 300.587 1232.88 299.296 1233.16 298.336ZM1230.18 298.336C1229.89 299.403 1229.48 300.693 1228.97 302.208H1221.93L1220.9 298.336H1230.18ZM1218.38 311.296C1224.84 310.144 1230.16 308.832 1234.34 307.36L1233.48 304.992C1231.58 305.675 1229.17 306.357 1226.25 307.04C1223.33 307.723 1220.46 308.267 1217.64 308.672L1218.38 311.296ZM1226.86 311.904C1223.59 312.779 1220.41 313.472 1217.32 313.984L1218.06 316.672C1221.21 316.117 1224.42 315.381 1227.69 314.464C1230.95 313.547 1233.83 312.587 1236.33 311.584L1235.34 309.216C1232.97 310.133 1230.14 311.029 1226.86 311.904ZM1227.27 317.376C1223.5 318.4 1219.68 319.189 1215.82 319.744L1216.71 322.56C1220.83 321.856 1224.83 320.971 1228.71 319.904C1232.59 318.816 1235.86 317.675 1238.5 316.48L1237.35 313.952C1234.41 315.189 1231.05 316.331 1227.27 317.376ZM1265.19 299.84C1266.83 298.411 1268.32 296.971 1269.64 295.52L1267.62 293.504C1266.41 294.869 1265 296.213 1263.4 297.536C1261.82 298.859 1260.33 299.947 1258.92 300.8L1260.62 303.296C1262.05 302.4 1263.57 301.248 1265.19 299.84ZM1257.45 310.048H1259.5V307.232H1257.45V294.784H1245.35V307.232H1242.47V310.048H1245.32C1245.28 311.797 1245.16 313.248 1244.97 314.4C1244.8 315.552 1244.5 316.651 1244.07 317.696C1243.67 318.741 1243.07 319.957 1242.28 321.344L1245 322.496C1245.81 320.939 1246.43 319.584 1246.86 318.432C1247.28 317.28 1247.59 316.064 1247.78 314.784C1247.98 313.504 1248.09 311.925 1248.14 310.048H1254.66V316.544C1254.66 317.504 1254.56 318.165 1254.34 318.528C1254.13 318.891 1253.77 319.072 1253.26 319.072C1252.47 319.093 1251.45 319.029 1250.22 318.88L1250.79 321.664C1252.16 321.792 1253.43 321.845 1254.6 321.824C1255.6 321.781 1256.33 321.472 1256.78 320.896C1257.22 320.341 1257.45 319.403 1257.45 318.08V310.048ZM1248.17 307.232V297.536H1254.66V307.232H1248.17ZM1253.83 304.544C1252.89 302.517 1251.94 300.683 1250.98 299.04L1248.78 300.128C1249.57 301.536 1250.5 303.403 1251.59 305.728L1253.83 304.544ZM1268.81 301.536C1266.35 304.181 1263.49 306.72 1260.2 309.152L1261.99 311.488C1265.09 309.077 1268.02 306.4 1270.79 303.456L1268.81 301.536ZM1266.7 317.408C1268.49 315.744 1270.15 313.877 1271.69 311.808L1269.42 309.984C1267.94 311.947 1266.33 313.707 1264.58 315.264C1262.86 316.821 1260.85 318.261 1258.57 319.584L1260.33 322.176C1262.78 320.661 1264.9 319.072 1266.7 317.408Z" fill="#2C3E6C"/>
</svg>
